<?xml version="1.0" encoding="UTF-8" standalone="no"?>
<svg
   xmlns:dc="http://purl.org/dc/elements/1.1/"
   xmlns:cc="http://creativecommons.org/ns#"
   xmlns:rdf="http://www.w3.org/1999/02/22-rdf-syntax-ns#"
   xmlns:svg="http://www.w3.org/2000/svg"
   xmlns="http://www.w3.org/2000/svg"
   xmlns:sodipodi="http://sodipodi.sourceforge.net/DTD/sodipodi-0.dtd"
   xmlns:inkscape="http://www.inkscape.org/namespaces/inkscape"
   version="1.1"
   x="0px"
   y="0px"
   viewBox="0 0 31.799999 27"
   xml:space="preserve"
   id="svg14"
   sodipodi:docname="flip.svg"
   inkscape:version="0.92.4 (5da689c313, 2019-01-14)"
   width="31.799999"
   height="27"><metadata
     id="metadata20"><rdf:RDF><cc:Work
         rdf:about=""><dc:format>image/svg+xml</dc:format><dc:type
           rdf:resource="http://purl.org/dc/dcmitype/StillImage" /></cc:Work></rdf:RDF></metadata><defs
     id="defs18" /><sodipodi:namedview
     pagecolor="#ffffff"
     bordercolor="#666666"
     borderopacity="1"
     objecttolerance="10"
     gridtolerance="10"
     guidetolerance="10"
     inkscape:pageopacity="0"
     inkscape:pageshadow="2"
     inkscape:window-width="1920"
     inkscape:window-height="1001"
     id="namedview16"
     showgrid="false"
     inkscape:zoom="8.9001173"
     inkscape:cx="30.265303"
     inkscape:cy="16.834575"
     inkscape:window-x="-9"
     inkscape:window-y="-9"
     inkscape:window-maximized="1"
     inkscape:current-layer="svg14" /><title
     id="title2">Snap Noun Project</title><path
     d="m 16,20.8 c -3.9,0 -7.0000001,-3.1 -7.0000001,-7 0,-3.9000004 3.1000001,-7 7.0000001,-7 3.9,0 7,3.0999996 7,7 0,3.9 -3.2,7 -7,7 z M 16,9.5999996 c -2.3,0 -4.1,1.9000004 -4.1,4.2000004 0,2.3 1.9,4.1 4.2,4.1 2.3,0 4.1,-1.9 4.1,-4.1 0,-2.2 -2,-4.2000004 -4.2,-4.2000004 z"
     id="path4"
     inkscape:connector-curvature="0" /><path
     d="m 18.2,2.2 c 0,0.8 -0.6,1.4 -1.4,1.4 H 8.3 C 4,3.6 2.7,5 2.7,9.1999996 V 15.1 c 0,4.3 1.2,5.4 4.5,5.6 L 6.1,19.3 c -0.5,-0.6 -0.4,-1.5 0.2,-2 0.6,-0.5 1.5,-0.4 2,0.2 l 3,3.7 0.1,0.1 c 0.1,0.1 0.2,0.3 0.2,0.5 0,0.1 0,0.2 0,0.3 0,0.1 0,0.2 0,0.2 0,0.1 0,0.1 0,0.2 -0.1,0.2 -0.1,0.3 -0.3,0.5 v 0 l -3,3.5 C 8,26.8 7.6,27 7.2,27 6.9,27 6.5,26.9 6.3,26.7 5.7,26.2 5.6,25.4 6.1,24.8 c 0,0 0,0 0.1,-0.1 l 1,-1.2 C 2.8,23.3 0,21.5 0,15.1 V 9.1999996 C 0,3.4 2.6,0.80000001 8.4,0.80000001 h 8.5 C 17.5,0.80000001 18.1,1.4 18.2,2.2 Z"
     id="path6"
     inkscape:connector-curvature="0" /><path
     d="m 13.5,24.8 c 0,-0.8 0.6,-1.4 1.4,-1.4 h 8.6 c 4.3,0 5.6,-1.4 5.6,-5.6 v -5.9 c 0,-4.3 -1.2,-5.4 -4.5,-5.6 l 1.1,1.4 C 26.2,8.3 26.1,9.1999996 25.5,9.6999996 24.9,10.2 24,10.1 23.5,9.4999996 L 20.5,5.8 20.4,5.7 C 20.3,5.6 20.2,5.4 20.2,5.2 c 0,-0.1 0,-0.2 0,-0.3 0,-0.1 0,-0.2 0,-0.2 0,-0.1 0,-0.1 0,-0.2 0.1,-0.2 0.1,-0.3 0.3,-0.5 v 0 l 3,-3.49999999 C 23.8,0.20000001 24.2,0 24.6,0 24.9,0 25.3,0.1 25.5,0.30000001 26.1,0.80000001 26.2,1.6 25.7,2.2 c 0,0 0,0 -0.1,0.1 l -1,1.1 c 4.4,0.2 7.2,2 7.2,8.4 v 5.9 c 0,5.8 -2.6,8.4 -8.5,8.4 h -8.5 c -0.7,0.1 -1.3,-0.5 -1.3,-1.3 z"
     id="path8"
     inkscape:connector-curvature="0" /></svg>